<mxfile host="app.diagrams.net" modified="2020-11-20T15:28:53.500Z" agent="5.0 (X11; Linux x86_64) AppleWebKit/537.36 (KHTML, like Gecko) Chrome/86.0.4240.198 Safari/537.36" etag="89WM3Qluzao8IYi6gI9j" version="13.10.0" type="github">
  <diagram id="bskcFMna8GMx7EHGJHJm" name="Page-1">
    <mxGraphModel dx="981" dy="534" grid="1" gridSize="10" guides="1" tooltips="1" connect="1" arrows="1" fold="1" page="1" pageScale="1" pageWidth="827" pageHeight="1169" math="0" shadow="0">
      <root>
        <mxCell id="0" />
        <mxCell id="1" parent="0" />
        <mxCell id="k9dry6TAD04cZlXCWg3t-1" value="" style="rounded=0;whiteSpace=wrap;html=1;" vertex="1" parent="1">
          <mxGeometry x="110" y="240" width="80" height="50" as="geometry" />
        </mxCell>
        <mxCell id="k9dry6TAD04cZlXCWg3t-2" value="&lt;font style=&quot;font-size: 16px&quot;&gt;TreeNode&lt;/font&gt;" style="rounded=0;whiteSpace=wrap;html=1;" vertex="1" parent="1">
          <mxGeometry x="190" y="240" width="80" height="50" as="geometry" />
        </mxCell>
        <mxCell id="k9dry6TAD04cZlXCWg3t-3" value="" style="rounded=0;whiteSpace=wrap;html=1;" vertex="1" parent="1">
          <mxGeometry x="270" y="240" width="80" height="50" as="geometry" />
        </mxCell>
        <mxCell id="k9dry6TAD04cZlXCWg3t-4" value="&lt;font style=&quot;font-size: 16px&quot;&gt;tab&lt;/font&gt;" style="text;html=1;align=center;verticalAlign=middle;resizable=0;points=[];autosize=1;" vertex="1" parent="1">
          <mxGeometry x="50" y="250" width="40" height="20" as="geometry" />
        </mxCell>
        <mxCell id="k9dry6TAD04cZlXCWg3t-6" value="&lt;font style=&quot;font-size: 16px&quot;&gt;1&lt;/font&gt;" style="ellipse;whiteSpace=wrap;html=1;aspect=fixed;" vertex="1" parent="1">
          <mxGeometry x="200" y="290" width="60" height="60" as="geometry" />
        </mxCell>
        <mxCell id="k9dry6TAD04cZlXCWg3t-7" value="" style="endArrow=classic;html=1;exitX=0.5;exitY=1;exitDx=0;exitDy=0;" edge="1" parent="1" source="k9dry6TAD04cZlXCWg3t-6">
          <mxGeometry width="50" height="50" relative="1" as="geometry">
            <mxPoint x="390" y="420" as="sourcePoint" />
            <mxPoint x="190" y="400" as="targetPoint" />
          </mxGeometry>
        </mxCell>
        <mxCell id="k9dry6TAD04cZlXCWg3t-8" value="3" style="ellipse;whiteSpace=wrap;html=1;aspect=fixed;" vertex="1" parent="1">
          <mxGeometry x="270" y="390" width="60" height="60" as="geometry" />
        </mxCell>
        <mxCell id="k9dry6TAD04cZlXCWg3t-9" value="2" style="ellipse;whiteSpace=wrap;html=1;aspect=fixed;" vertex="1" parent="1">
          <mxGeometry x="140" y="390" width="60" height="60" as="geometry" />
        </mxCell>
        <mxCell id="k9dry6TAD04cZlXCWg3t-10" value="" style="endArrow=classic;html=1;exitX=0.717;exitY=1;exitDx=0;exitDy=0;entryX=0;entryY=0;entryDx=0;entryDy=0;exitPerimeter=0;" edge="1" parent="1" source="k9dry6TAD04cZlXCWg3t-6" target="k9dry6TAD04cZlXCWg3t-8">
          <mxGeometry width="50" height="50" relative="1" as="geometry">
            <mxPoint x="240" y="360" as="sourcePoint" />
            <mxPoint x="200" y="410" as="targetPoint" />
          </mxGeometry>
        </mxCell>
        <mxCell id="k9dry6TAD04cZlXCWg3t-11" value="&lt;font style=&quot;font-size: 16px&quot;&gt;e=d&lt;/font&gt;" style="text;html=1;align=center;verticalAlign=middle;resizable=0;points=[];autosize=1;" vertex="1" parent="1">
          <mxGeometry x="90" y="400" width="40" height="20" as="geometry" />
        </mxCell>
        <mxCell id="k9dry6TAD04cZlXCWg3t-12" value="" style="rounded=0;whiteSpace=wrap;html=1;" vertex="1" parent="1">
          <mxGeometry x="350" y="240" width="80" height="50" as="geometry" />
        </mxCell>
        <mxCell id="k9dry6TAD04cZlXCWg3t-13" value="" style="rounded=0;whiteSpace=wrap;html=1;" vertex="1" parent="1">
          <mxGeometry x="430" y="240" width="80" height="50" as="geometry" />
        </mxCell>
        <mxCell id="k9dry6TAD04cZlXCWg3t-14" value="&lt;font style=&quot;font-size: 16px&quot;&gt;.....&lt;/font&gt;" style="text;html=1;align=center;verticalAlign=middle;resizable=0;points=[];autosize=1;" vertex="1" parent="1">
          <mxGeometry x="530" y="250" width="40" height="20" as="geometry" />
        </mxCell>
        <mxCell id="k9dry6TAD04cZlXCWg3t-15" value="&lt;font style=&quot;font-size: 17px&quot;&gt;tab.lenght=16&lt;/font&gt;" style="text;html=1;align=center;verticalAlign=middle;resizable=0;points=[];autosize=1;" vertex="1" parent="1">
          <mxGeometry x="410" y="180" width="120" height="20" as="geometry" />
        </mxCell>
        <mxCell id="k9dry6TAD04cZlXCWg3t-17" value="" style="rounded=0;whiteSpace=wrap;html=1;" vertex="1" parent="1">
          <mxGeometry x="670" y="235" width="80" height="50" as="geometry" />
        </mxCell>
        <mxCell id="k9dry6TAD04cZlXCWg3t-18" value="" style="rounded=0;whiteSpace=wrap;html=1;" vertex="1" parent="1">
          <mxGeometry x="747" y="235" width="80" height="50" as="geometry" />
        </mxCell>
        <mxCell id="k9dry6TAD04cZlXCWg3t-19" value="" style="rounded=0;whiteSpace=wrap;html=1;" vertex="1" parent="1">
          <mxGeometry x="827" y="235" width="80" height="50" as="geometry" />
        </mxCell>
        <mxCell id="k9dry6TAD04cZlXCWg3t-20" value="" style="rounded=0;whiteSpace=wrap;html=1;" vertex="1" parent="1">
          <mxGeometry x="907" y="235" width="80" height="50" as="geometry" />
        </mxCell>
        <mxCell id="k9dry6TAD04cZlXCWg3t-21" value="" style="rounded=0;whiteSpace=wrap;html=1;" vertex="1" parent="1">
          <mxGeometry x="987" y="235" width="80" height="50" as="geometry" />
        </mxCell>
        <mxCell id="k9dry6TAD04cZlXCWg3t-22" value="&lt;font style=&quot;font-size: 16px&quot;&gt;....&lt;/font&gt;" style="text;html=1;align=center;verticalAlign=middle;resizable=0;points=[];autosize=1;" vertex="1" parent="1">
          <mxGeometry x="1075" y="250" width="30" height="20" as="geometry" />
        </mxCell>
        <mxCell id="k9dry6TAD04cZlXCWg3t-23" value="&lt;font style=&quot;font-size: 16px&quot;&gt;newTab&lt;/font&gt;" style="text;html=1;align=center;verticalAlign=middle;resizable=0;points=[];autosize=1;" vertex="1" parent="1">
          <mxGeometry x="665" y="200" width="70" height="20" as="geometry" />
        </mxCell>
        <mxCell id="k9dry6TAD04cZlXCWg3t-24" value="&lt;font style=&quot;font-size: 16px&quot;&gt;newTab.lenght=32&lt;/font&gt;" style="text;html=1;align=center;verticalAlign=middle;resizable=0;points=[];autosize=1;" vertex="1" parent="1">
          <mxGeometry x="965" y="210" width="150" height="20" as="geometry" />
        </mxCell>
        <mxCell id="k9dry6TAD04cZlXCWg3t-25" value="&lt;span style=&quot;font-size: 16px&quot;&gt;扩容前&lt;/span&gt;" style="text;html=1;align=center;verticalAlign=middle;resizable=0;points=[];autosize=1;" vertex="1" parent="1">
          <mxGeometry x="230" y="110" width="60" height="20" as="geometry" />
        </mxCell>
        <mxCell id="k9dry6TAD04cZlXCWg3t-26" value="&lt;span style=&quot;font-size: 16px&quot;&gt;扩容后&lt;/span&gt;" style="text;html=1;align=center;verticalAlign=middle;resizable=0;points=[];autosize=1;" vertex="1" parent="1">
          <mxGeometry x="840" y="110" width="60" height="20" as="geometry" />
        </mxCell>
        <mxCell id="k9dry6TAD04cZlXCWg3t-27" value="&lt;span style=&quot;font-size: 16px&quot;&gt;e.hash &amp;amp; tab.lenght=0&lt;/span&gt;" style="text;html=1;align=center;verticalAlign=middle;resizable=0;points=[];autosize=1;" vertex="1" parent="1">
          <mxGeometry x="540" y="360" width="170" height="20" as="geometry" />
        </mxCell>
        <mxCell id="k9dry6TAD04cZlXCWg3t-28" value="&lt;font style=&quot;font-size: 16px&quot;&gt;1&lt;/font&gt;" style="rounded=0;whiteSpace=wrap;html=1;" vertex="1" parent="1">
          <mxGeometry x="585" y="420" width="80" height="50" as="geometry" />
        </mxCell>
        <mxCell id="k9dry6TAD04cZlXCWg3t-29" value="&lt;font style=&quot;font-size: 16px&quot;&gt;hi&lt;/font&gt;" style="rounded=0;whiteSpace=wrap;html=1;" vertex="1" parent="1">
          <mxGeometry x="810" y="420" width="80" height="50" as="geometry" />
        </mxCell>
        <mxCell id="k9dry6TAD04cZlXCWg3t-30" value="" style="endArrow=classic;html=1;exitX=0.488;exitY=1.2;exitDx=0;exitDy=0;exitPerimeter=0;entryX=0.5;entryY=0;entryDx=0;entryDy=0;" edge="1" parent="1" source="k9dry6TAD04cZlXCWg3t-27" target="k9dry6TAD04cZlXCWg3t-28">
          <mxGeometry width="50" height="50" relative="1" as="geometry">
            <mxPoint x="240" y="360" as="sourcePoint" />
            <mxPoint x="200" y="410" as="targetPoint" />
          </mxGeometry>
        </mxCell>
        <mxCell id="k9dry6TAD04cZlXCWg3t-31" value="&lt;font style=&quot;font-size: 16px&quot;&gt;netx = e.next&lt;/font&gt;" style="text;html=1;align=center;verticalAlign=middle;resizable=0;points=[];autosize=1;" vertex="1" parent="1">
          <mxGeometry x="335" y="410" width="110" height="20" as="geometry" />
        </mxCell>
        <mxCell id="k9dry6TAD04cZlXCWg3t-33" value="&lt;font style=&quot;font-size: 16px&quot;&gt;2&lt;br&gt;&lt;/font&gt;" style="rounded=0;whiteSpace=wrap;html=1;" vertex="1" parent="1">
          <mxGeometry x="585" y="535" width="80" height="50" as="geometry" />
        </mxCell>
        <mxCell id="k9dry6TAD04cZlXCWg3t-35" value="&lt;font style=&quot;font-size: 16px&quot;&gt;e&lt;/font&gt;" style="text;html=1;align=center;verticalAlign=middle;resizable=0;points=[];autosize=1;" vertex="1" parent="1">
          <mxGeometry x="420" y="550" width="20" height="20" as="geometry" />
        </mxCell>
        <mxCell id="k9dry6TAD04cZlXCWg3t-36" value="" style="endArrow=classic;html=1;exitX=1.036;exitY=0.6;exitDx=0;exitDy=0;exitPerimeter=0;" edge="1" parent="1" source="k9dry6TAD04cZlXCWg3t-35">
          <mxGeometry width="50" height="50" relative="1" as="geometry">
            <mxPoint x="253.01999999999998" y="360" as="sourcePoint" />
            <mxPoint x="580" y="562" as="targetPoint" />
          </mxGeometry>
        </mxCell>
        <mxCell id="k9dry6TAD04cZlXCWg3t-37" value="&lt;font style=&quot;font-size: 16px&quot;&gt;e&lt;/font&gt;" style="text;html=1;align=center;verticalAlign=middle;resizable=0;points=[];autosize=1;" vertex="1" parent="1">
          <mxGeometry x="460" y="435" width="20" height="20" as="geometry" />
        </mxCell>
        <mxCell id="k9dry6TAD04cZlXCWg3t-38" value="" style="endArrow=classic;html=1;exitX=1.25;exitY=0.65;exitDx=0;exitDy=0;exitPerimeter=0;" edge="1" parent="1" source="k9dry6TAD04cZlXCWg3t-37">
          <mxGeometry width="50" height="50" relative="1" as="geometry">
            <mxPoint x="498.96000000000004" y="572" as="sourcePoint" />
            <mxPoint x="580" y="448" as="targetPoint" />
          </mxGeometry>
        </mxCell>
        <mxCell id="k9dry6TAD04cZlXCWg3t-39" value="e.prev = loTail" style="text;html=1;align=center;verticalAlign=middle;resizable=0;points=[];autosize=1;" vertex="1" parent="1">
          <mxGeometry x="415" y="650" width="90" height="20" as="geometry" />
        </mxCell>
        <mxCell id="k9dry6TAD04cZlXCWg3t-40" value="" style="endArrow=classic;html=1;exitX=0.849;exitY=-0.097;exitDx=0;exitDy=0;exitPerimeter=0;" edge="1" parent="1" source="k9dry6TAD04cZlXCWg3t-39">
          <mxGeometry width="50" height="50" relative="1" as="geometry">
            <mxPoint x="450.72000000000025" y="572" as="sourcePoint" />
            <mxPoint x="590" y="572" as="targetPoint" />
          </mxGeometry>
        </mxCell>
        <mxCell id="k9dry6TAD04cZlXCWg3t-41" value="&lt;font style=&quot;font-size: 16px&quot;&gt;3&lt;br&gt;&lt;/font&gt;" style="rounded=0;whiteSpace=wrap;html=1;" vertex="1" parent="1">
          <mxGeometry x="585" y="630" width="80" height="50" as="geometry" />
        </mxCell>
        <mxCell id="k9dry6TAD04cZlXCWg3t-42" value="" style="endArrow=classic;html=1;exitX=0.5;exitY=1;exitDx=0;exitDy=0;" edge="1" parent="1" source="k9dry6TAD04cZlXCWg3t-33" target="k9dry6TAD04cZlXCWg3t-41">
          <mxGeometry width="50" height="50" relative="1" as="geometry">
            <mxPoint x="450.72000000000025" y="572" as="sourcePoint" />
            <mxPoint x="590" y="572" as="targetPoint" />
          </mxGeometry>
        </mxCell>
        <mxCell id="k9dry6TAD04cZlXCWg3t-43" value="&lt;font style=&quot;font-size: 16px&quot;&gt;3&lt;br&gt;&lt;/font&gt;" style="rounded=0;whiteSpace=wrap;html=1;" vertex="1" parent="1">
          <mxGeometry x="590" y="730" width="80" height="50" as="geometry" />
        </mxCell>
      </root>
    </mxGraphModel>
  </diagram>
</mxfile>
